<?xml version="1.0" standalone="no"?>
<svg xmlns="http://www.w3.org/2000/svg" version="1.1" width="1230" height="1230">
	<!-- Created with https://api.qrserver.com (QR Code API, see goQR.me/api for information) -->
	<title>QR Code</title>
	<desc>https://susuu-123.github.io/icis-2026-posters/poster1.html</desc>
	<rect style="fill:rgb(255, 255, 255);fill-opacity:1" x="0" y="0" width="1230" height="1230" />
	<g id="elements">
		<path style="fill:rgb(0, 0, 0)" d="M 120,120 l 30,0 0,30 -30,0 z M 150,120 l 30,0 0,30 -30,0 z M 180,120 l 30,0 0,30 -30,0 z M 210,120 l 30,0 0,30 -30,0 z M 240,120 l 30,0 0,30 -30,0 z M 270,120 l 30,0 0,30 -30,0 z M 300,120 l 30,0 0,30 -30,0 z M 420,120 l 30,0 0,30 -30,0 z M 450,120 l 30,0 0,30 -30,0 z M 510,120 l 30,0 0,30 -30,0 z M 600,120 l 30,0 0,30 -30,0 z M 630,120 l 30,0 0,30 -30,0 z M 660,120 l 30,0 0,30 -30,0 z M 690,120 l 30,0 0,30 -30,0 z M 720,120 l 30,0 0,30 -30,0 z M 810,120 l 30,0 0,30 -30,0 z M 840,120 l 30,0 0,30 -30,0 z M 900,120 l 30,0 0,30 -30,0 z M 930,120 l 30,0 0,30 -30,0 z M 960,120 l 30,0 0,30 -30,0 z M 990,120 l 30,0 0,30 -30,0 z M 1020,120 l 30,0 0,30 -30,0 z M 1050,120 l 30,0 0,30 -30,0 z M 1080,120 l 30,0 0,30 -30,0 z M 120,150 l 30,0 0,30 -30,0 z M 300,150 l 30,0 0,30 -30,0 z M 390,150 l 30,0 0,30 -30,0 z M 420,150 l 30,0 0,30 -30,0 z M 510,150 l 30,0 0,30 -30,0 z M 540,150 l 30,0 0,30 -30,0 z M 570,150 l 30,0 0,30 -30,0 z M 600,150 l 30,0 0,30 -30,0 z M 750,150 l 30,0 0,30 -30,0 z M 780,150 l 30,0 0,30 -30,0 z M 900,150 l 30,0 0,30 -30,0 z M 1080,150 l 30,0 0,30 -30,0 z M 120,180 l 30,0 0,30 -30,0 z M 180,180 l 30,0 0,30 -30,0 z M 210,180 l 30,0 0,30 -30,0 z M 240,180 l 30,0 0,30 -30,0 z M 300,180 l 30,0 0,30 -30,0 z M 360,180 l 30,0 0,30 -30,0 z M 420,180 l 30,0 0,30 -30,0 z M 450,180 l 30,0 0,30 -30,0 z M 480,180 l 30,0 0,30 -30,0 z M 510,180 l 30,0 0,30 -30,0 z M 570,180 l 30,0 0,30 -30,0 z M 630,180 l 30,0 0,30 -30,0 z M 660,180 l 30,0 0,30 -30,0 z M 720,180 l 30,0 0,30 -30,0 z M 900,180 l 30,0 0,30 -30,0 z M 960,180 l 30,0 0,30 -30,0 z M 990,180 l 30,0 0,30 -30,0 z M 1020,180 l 30,0 0,30 -30,0 z M 1080,180 l 30,0 0,30 -30,0 z M 120,210 l 30,0 0,30 -30,0 z M 180,210 l 30,0 0,30 -30,0 z M 210,210 l 30,0 0,30 -30,0 z M 240,210 l 30,0 0,30 -30,0 z M 300,210 l 30,0 0,30 -30,0 z M 360,210 l 30,0 0,30 -30,0 z M 390,210 l 30,0 0,30 -30,0 z M 420,210 l 30,0 0,30 -30,0 z M 480,210 l 30,0 0,30 -30,0 z M 540,210 l 30,0 0,30 -30,0 z M 660,210 l 30,0 0,30 -30,0 z M 720,210 l 30,0 0,30 -30,0 z M 750,210 l 30,0 0,30 -30,0 z M 900,210 l 30,0 0,30 -30,0 z M 960,210 l 30,0 0,30 -30,0 z M 990,210 l 30,0 0,30 -30,0 z M 1020,210 l 30,0 0,30 -30,0 z M 1080,210 l 30,0 0,30 -30,0 z M 120,240 l 30,0 0,30 -30,0 z M 180,240 l 30,0 0,30 -30,0 z M 210,240 l 30,0 0,30 -30,0 z M 240,240 l 30,0 0,30 -30,0 z M 300,240 l 30,0 0,30 -30,0 z M 360,240 l 30,0 0,30 -30,0 z M 390,240 l 30,0 0,30 -30,0 z M 480,240 l 30,0 0,30 -30,0 z M 570,240 l 30,0 0,30 -30,0 z M 630,240 l 30,0 0,30 -30,0 z M 660,240 l 30,0 0,30 -30,0 z M 720,240 l 30,0 0,30 -30,0 z M 780,240 l 30,0 0,30 -30,0 z M 900,240 l 30,0 0,30 -30,0 z M 960,240 l 30,0 0,30 -30,0 z M 990,240 l 30,0 0,30 -30,0 z M 1020,240 l 30,0 0,30 -30,0 z M 1080,240 l 30,0 0,30 -30,0 z M 120,270 l 30,0 0,30 -30,0 z M 300,270 l 30,0 0,30 -30,0 z M 360,270 l 30,0 0,30 -30,0 z M 420,270 l 30,0 0,30 -30,0 z M 510,270 l 30,0 0,30 -30,0 z M 570,270 l 30,0 0,30 -30,0 z M 660,270 l 30,0 0,30 -30,0 z M 720,270 l 30,0 0,30 -30,0 z M 750,270 l 30,0 0,30 -30,0 z M 780,270 l 30,0 0,30 -30,0 z M 900,270 l 30,0 0,30 -30,0 z M 1080,270 l 30,0 0,30 -30,0 z M 120,300 l 30,0 0,30 -30,0 z M 150,300 l 30,0 0,30 -30,0 z M 180,300 l 30,0 0,30 -30,0 z M 210,300 l 30,0 0,30 -30,0 z M 240,300 l 30,0 0,30 -30,0 z M 270,300 l 30,0 0,30 -30,0 z M 300,300 l 30,0 0,30 -30,0 z M 360,300 l 30,0 0,30 -30,0 z M 420,300 l 30,0 0,30 -30,0 z M 480,300 l 30,0 0,30 -30,0 z M 540,300 l 30,0 0,30 -30,0 z M 600,300 l 30,0 0,30 -30,0 z M 660,300 l 30,0 0,30 -30,0 z M 720,300 l 30,0 0,30 -30,0 z M 780,300 l 30,0 0,30 -30,0 z M 840,300 l 30,0 0,30 -30,0 z M 900,300 l 30,0 0,30 -30,0 z M 930,300 l 30,0 0,30 -30,0 z M 960,300 l 30,0 0,30 -30,0 z M 990,300 l 30,0 0,30 -30,0 z M 1020,300 l 30,0 0,30 -30,0 z M 1050,300 l 30,0 0,30 -30,0 z M 1080,300 l 30,0 0,30 -30,0 z M 360,330 l 30,0 0,30 -30,0 z M 390,330 l 30,0 0,30 -30,0 z M 450,330 l 30,0 0,30 -30,0 z M 540,330 l 30,0 0,30 -30,0 z M 570,330 l 30,0 0,30 -30,0 z M 660,330 l 30,0 0,30 -30,0 z M 750,330 l 30,0 0,30 -30,0 z M 780,330 l 30,0 0,30 -30,0 z M 840,330 l 30,0 0,30 -30,0 z M 120,360 l 30,0 0,30 -30,0 z M 180,360 l 30,0 0,30 -30,0 z M 210,360 l 30,0 0,30 -30,0 z M 240,360 l 30,0 0,30 -30,0 z M 270,360 l 30,0 0,30 -30,0 z M 300,360 l 30,0 0,30 -30,0 z M 420,360 l 30,0 0,30 -30,0 z M 510,360 l 30,0 0,30 -30,0 z M 540,360 l 30,0 0,30 -30,0 z M 570,360 l 30,0 0,30 -30,0 z M 630,360 l 30,0 0,30 -30,0 z M 690,360 l 30,0 0,30 -30,0 z M 720,360 l 30,0 0,30 -30,0 z M 810,360 l 30,0 0,30 -30,0 z M 900,360 l 30,0 0,30 -30,0 z M 930,360 l 30,0 0,30 -30,0 z M 960,360 l 30,0 0,30 -30,0 z M 990,360 l 30,0 0,30 -30,0 z M 1020,360 l 30,0 0,30 -30,0 z M 150,390 l 30,0 0,30 -30,0 z M 210,390 l 30,0 0,30 -30,0 z M 240,390 l 30,0 0,30 -30,0 z M 270,390 l 30,0 0,30 -30,0 z M 360,390 l 30,0 0,30 -30,0 z M 390,390 l 30,0 0,30 -30,0 z M 480,390 l 30,0 0,30 -30,0 z M 600,390 l 30,0 0,30 -30,0 z M 630,390 l 30,0 0,30 -30,0 z M 690,390 l 30,0 0,30 -30,0 z M 720,390 l 30,0 0,30 -30,0 z M 780,390 l 30,0 0,30 -30,0 z M 810,390 l 30,0 0,30 -30,0 z M 900,390 l 30,0 0,30 -30,0 z M 930,390 l 30,0 0,30 -30,0 z M 990,390 l 30,0 0,30 -30,0 z M 1020,390 l 30,0 0,30 -30,0 z M 1050,390 l 30,0 0,30 -30,0 z M 1080,390 l 30,0 0,30 -30,0 z M 120,420 l 30,0 0,30 -30,0 z M 150,420 l 30,0 0,30 -30,0 z M 180,420 l 30,0 0,30 -30,0 z M 300,420 l 30,0 0,30 -30,0 z M 360,420 l 30,0 0,30 -30,0 z M 450,420 l 30,0 0,30 -30,0 z M 480,420 l 30,0 0,30 -30,0 z M 570,420 l 30,0 0,30 -30,0 z M 600,420 l 30,0 0,30 -30,0 z M 720,420 l 30,0 0,30 -30,0 z M 750,420 l 30,0 0,30 -30,0 z M 780,420 l 30,0 0,30 -30,0 z M 870,420 l 30,0 0,30 -30,0 z M 960,420 l 30,0 0,30 -30,0 z M 1020,420 l 30,0 0,30 -30,0 z M 120,450 l 30,0 0,30 -30,0 z M 150,450 l 30,0 0,30 -30,0 z M 180,450 l 30,0 0,30 -30,0 z M 210,450 l 30,0 0,30 -30,0 z M 240,450 l 30,0 0,30 -30,0 z M 330,450 l 30,0 0,30 -30,0 z M 480,450 l 30,0 0,30 -30,0 z M 540,450 l 30,0 0,30 -30,0 z M 600,450 l 30,0 0,30 -30,0 z M 660,450 l 30,0 0,30 -30,0 z M 870,450 l 30,0 0,30 -30,0 z M 960,450 l 30,0 0,30 -30,0 z M 990,450 l 30,0 0,30 -30,0 z M 1020,450 l 30,0 0,30 -30,0 z M 150,480 l 30,0 0,30 -30,0 z M 180,480 l 30,0 0,30 -30,0 z M 210,480 l 30,0 0,30 -30,0 z M 240,480 l 30,0 0,30 -30,0 z M 300,480 l 30,0 0,30 -30,0 z M 450,480 l 30,0 0,30 -30,0 z M 480,480 l 30,0 0,30 -30,0 z M 690,480 l 30,0 0,30 -30,0 z M 720,480 l 30,0 0,30 -30,0 z M 750,480 l 30,0 0,30 -30,0 z M 780,480 l 30,0 0,30 -30,0 z M 930,480 l 30,0 0,30 -30,0 z M 990,480 l 30,0 0,30 -30,0 z M 120,510 l 30,0 0,30 -30,0 z M 180,510 l 30,0 0,30 -30,0 z M 240,510 l 30,0 0,30 -30,0 z M 270,510 l 30,0 0,30 -30,0 z M 390,510 l 30,0 0,30 -30,0 z M 420,510 l 30,0 0,30 -30,0 z M 450,510 l 30,0 0,30 -30,0 z M 510,510 l 30,0 0,30 -30,0 z M 540,510 l 30,0 0,30 -30,0 z M 570,510 l 30,0 0,30 -30,0 z M 660,510 l 30,0 0,30 -30,0 z M 750,510 l 30,0 0,30 -30,0 z M 840,510 l 30,0 0,30 -30,0 z M 870,510 l 30,0 0,30 -30,0 z M 930,510 l 30,0 0,30 -30,0 z M 990,510 l 30,0 0,30 -30,0 z M 1020,510 l 30,0 0,30 -30,0 z M 1050,510 l 30,0 0,30 -30,0 z M 1080,510 l 30,0 0,30 -30,0 z M 150,540 l 30,0 0,30 -30,0 z M 210,540 l 30,0 0,30 -30,0 z M 300,540 l 30,0 0,30 -30,0 z M 330,540 l 30,0 0,30 -30,0 z M 360,540 l 30,0 0,30 -30,0 z M 390,540 l 30,0 0,30 -30,0 z M 480,540 l 30,0 0,30 -30,0 z M 510,540 l 30,0 0,30 -30,0 z M 540,540 l 30,0 0,30 -30,0 z M 570,540 l 30,0 0,30 -30,0 z M 600,540 l 30,0 0,30 -30,0 z M 720,540 l 30,0 0,30 -30,0 z M 750,540 l 30,0 0,30 -30,0 z M 870,540 l 30,0 0,30 -30,0 z M 900,540 l 30,0 0,30 -30,0 z M 990,540 l 30,0 0,30 -30,0 z M 1050,540 l 30,0 0,30 -30,0 z M 150,570 l 30,0 0,30 -30,0 z M 210,570 l 30,0 0,30 -30,0 z M 330,570 l 30,0 0,30 -30,0 z M 390,570 l 30,0 0,30 -30,0 z M 420,570 l 30,0 0,30 -30,0 z M 450,570 l 30,0 0,30 -30,0 z M 480,570 l 30,0 0,30 -30,0 z M 510,570 l 30,0 0,30 -30,0 z M 540,570 l 30,0 0,30 -30,0 z M 720,570 l 30,0 0,30 -30,0 z M 750,570 l 30,0 0,30 -30,0 z M 780,570 l 30,0 0,30 -30,0 z M 870,570 l 30,0 0,30 -30,0 z M 900,570 l 30,0 0,30 -30,0 z M 960,570 l 30,0 0,30 -30,0 z M 1020,570 l 30,0 0,30 -30,0 z M 150,600 l 30,0 0,30 -30,0 z M 180,600 l 30,0 0,30 -30,0 z M 300,600 l 30,0 0,30 -30,0 z M 330,600 l 30,0 0,30 -30,0 z M 360,600 l 30,0 0,30 -30,0 z M 390,600 l 30,0 0,30 -30,0 z M 450,600 l 30,0 0,30 -30,0 z M 480,600 l 30,0 0,30 -30,0 z M 510,600 l 30,0 0,30 -30,0 z M 630,600 l 30,0 0,30 -30,0 z M 690,600 l 30,0 0,30 -30,0 z M 810,600 l 30,0 0,30 -30,0 z M 870,600 l 30,0 0,30 -30,0 z M 930,600 l 30,0 0,30 -30,0 z M 960,600 l 30,0 0,30 -30,0 z M 990,600 l 30,0 0,30 -30,0 z M 1080,600 l 30,0 0,30 -30,0 z M 120,630 l 30,0 0,30 -30,0 z M 240,630 l 30,0 0,30 -30,0 z M 360,630 l 30,0 0,30 -30,0 z M 450,630 l 30,0 0,30 -30,0 z M 480,630 l 30,0 0,30 -30,0 z M 630,630 l 30,0 0,30 -30,0 z M 660,630 l 30,0 0,30 -30,0 z M 690,630 l 30,0 0,30 -30,0 z M 720,630 l 30,0 0,30 -30,0 z M 780,630 l 30,0 0,30 -30,0 z M 810,630 l 30,0 0,30 -30,0 z M 870,630 l 30,0 0,30 -30,0 z M 900,630 l 30,0 0,30 -30,0 z M 930,630 l 30,0 0,30 -30,0 z M 990,630 l 30,0 0,30 -30,0 z M 1020,630 l 30,0 0,30 -30,0 z M 1080,630 l 30,0 0,30 -30,0 z M 120,660 l 30,0 0,30 -30,0 z M 150,660 l 30,0 0,30 -30,0 z M 180,660 l 30,0 0,30 -30,0 z M 240,660 l 30,0 0,30 -30,0 z M 270,660 l 30,0 0,30 -30,0 z M 300,660 l 30,0 0,30 -30,0 z M 420,660 l 30,0 0,30 -30,0 z M 480,660 l 30,0 0,30 -30,0 z M 510,660 l 30,0 0,30 -30,0 z M 570,660 l 30,0 0,30 -30,0 z M 600,660 l 30,0 0,30 -30,0 z M 630,660 l 30,0 0,30 -30,0 z M 660,660 l 30,0 0,30 -30,0 z M 720,660 l 30,0 0,30 -30,0 z M 870,660 l 30,0 0,30 -30,0 z M 900,660 l 30,0 0,30 -30,0 z M 930,660 l 30,0 0,30 -30,0 z M 960,660 l 30,0 0,30 -30,0 z M 1020,660 l 30,0 0,30 -30,0 z M 150,690 l 30,0 0,30 -30,0 z M 180,690 l 30,0 0,30 -30,0 z M 210,690 l 30,0 0,30 -30,0 z M 240,690 l 30,0 0,30 -30,0 z M 270,690 l 30,0 0,30 -30,0 z M 390,690 l 30,0 0,30 -30,0 z M 480,690 l 30,0 0,30 -30,0 z M 540,690 l 30,0 0,30 -30,0 z M 600,690 l 30,0 0,30 -30,0 z M 630,690 l 30,0 0,30 -30,0 z M 690,690 l 30,0 0,30 -30,0 z M 720,690 l 30,0 0,30 -30,0 z M 780,690 l 30,0 0,30 -30,0 z M 810,690 l 30,0 0,30 -30,0 z M 840,690 l 30,0 0,30 -30,0 z M 930,690 l 30,0 0,30 -30,0 z M 960,690 l 30,0 0,30 -30,0 z M 990,690 l 30,0 0,30 -30,0 z M 1020,690 l 30,0 0,30 -30,0 z M 1050,690 l 30,0 0,30 -30,0 z M 1080,690 l 30,0 0,30 -30,0 z M 120,720 l 30,0 0,30 -30,0 z M 240,720 l 30,0 0,30 -30,0 z M 270,720 l 30,0 0,30 -30,0 z M 300,720 l 30,0 0,30 -30,0 z M 330,720 l 30,0 0,30 -30,0 z M 360,720 l 30,0 0,30 -30,0 z M 390,720 l 30,0 0,30 -30,0 z M 420,720 l 30,0 0,30 -30,0 z M 450,720 l 30,0 0,30 -30,0 z M 540,720 l 30,0 0,30 -30,0 z M 600,720 l 30,0 0,30 -30,0 z M 660,720 l 30,0 0,30 -30,0 z M 720,720 l 30,0 0,30 -30,0 z M 750,720 l 30,0 0,30 -30,0 z M 780,720 l 30,0 0,30 -30,0 z M 990,720 l 30,0 0,30 -30,0 z M 120,750 l 30,0 0,30 -30,0 z M 150,750 l 30,0 0,30 -30,0 z M 180,750 l 30,0 0,30 -30,0 z M 210,750 l 30,0 0,30 -30,0 z M 240,750 l 30,0 0,30 -30,0 z M 390,750 l 30,0 0,30 -30,0 z M 420,750 l 30,0 0,30 -30,0 z M 450,750 l 30,0 0,30 -30,0 z M 510,750 l 30,0 0,30 -30,0 z M 540,750 l 30,0 0,30 -30,0 z M 570,750 l 30,0 0,30 -30,0 z M 600,750 l 30,0 0,30 -30,0 z M 720,750 l 30,0 0,30 -30,0 z M 750,750 l 30,0 0,30 -30,0 z M 780,750 l 30,0 0,30 -30,0 z M 870,750 l 30,0 0,30 -30,0 z M 960,750 l 30,0 0,30 -30,0 z M 990,750 l 30,0 0,30 -30,0 z M 1020,750 l 30,0 0,30 -30,0 z M 1080,750 l 30,0 0,30 -30,0 z M 120,780 l 30,0 0,30 -30,0 z M 180,780 l 30,0 0,30 -30,0 z M 210,780 l 30,0 0,30 -30,0 z M 240,780 l 30,0 0,30 -30,0 z M 300,780 l 30,0 0,30 -30,0 z M 390,780 l 30,0 0,30 -30,0 z M 450,780 l 30,0 0,30 -30,0 z M 510,780 l 30,0 0,30 -30,0 z M 540,780 l 30,0 0,30 -30,0 z M 570,780 l 30,0 0,30 -30,0 z M 600,780 l 30,0 0,30 -30,0 z M 630,780 l 30,0 0,30 -30,0 z M 660,780 l 30,0 0,30 -30,0 z M 690,780 l 30,0 0,30 -30,0 z M 810,780 l 30,0 0,30 -30,0 z M 840,780 l 30,0 0,30 -30,0 z M 930,780 l 30,0 0,30 -30,0 z M 990,780 l 30,0 0,30 -30,0 z M 1050,780 l 30,0 0,30 -30,0 z M 120,810 l 30,0 0,30 -30,0 z M 480,810 l 30,0 0,30 -30,0 z M 540,810 l 30,0 0,30 -30,0 z M 660,810 l 30,0 0,30 -30,0 z M 720,810 l 30,0 0,30 -30,0 z M 750,810 l 30,0 0,30 -30,0 z M 870,810 l 30,0 0,30 -30,0 z M 900,810 l 30,0 0,30 -30,0 z M 1020,810 l 30,0 0,30 -30,0 z M 120,840 l 30,0 0,30 -30,0 z M 240,840 l 30,0 0,30 -30,0 z M 270,840 l 30,0 0,30 -30,0 z M 300,840 l 30,0 0,30 -30,0 z M 360,840 l 30,0 0,30 -30,0 z M 390,840 l 30,0 0,30 -30,0 z M 420,840 l 30,0 0,30 -30,0 z M 450,840 l 30,0 0,30 -30,0 z M 510,840 l 30,0 0,30 -30,0 z M 540,840 l 30,0 0,30 -30,0 z M 630,840 l 30,0 0,30 -30,0 z M 660,840 l 30,0 0,30 -30,0 z M 690,840 l 30,0 0,30 -30,0 z M 810,840 l 30,0 0,30 -30,0 z M 840,840 l 30,0 0,30 -30,0 z M 870,840 l 30,0 0,30 -30,0 z M 900,840 l 30,0 0,30 -30,0 z M 930,840 l 30,0 0,30 -30,0 z M 960,840 l 30,0 0,30 -30,0 z M 1020,840 l 30,0 0,30 -30,0 z M 360,870 l 30,0 0,30 -30,0 z M 450,870 l 30,0 0,30 -30,0 z M 480,870 l 30,0 0,30 -30,0 z M 510,870 l 30,0 0,30 -30,0 z M 600,870 l 30,0 0,30 -30,0 z M 630,870 l 30,0 0,30 -30,0 z M 660,870 l 30,0 0,30 -30,0 z M 690,870 l 30,0 0,30 -30,0 z M 720,870 l 30,0 0,30 -30,0 z M 780,870 l 30,0 0,30 -30,0 z M 810,870 l 30,0 0,30 -30,0 z M 840,870 l 30,0 0,30 -30,0 z M 960,870 l 30,0 0,30 -30,0 z M 1020,870 l 30,0 0,30 -30,0 z M 1050,870 l 30,0 0,30 -30,0 z M 1080,870 l 30,0 0,30 -30,0 z M 120,900 l 30,0 0,30 -30,0 z M 150,900 l 30,0 0,30 -30,0 z M 180,900 l 30,0 0,30 -30,0 z M 210,900 l 30,0 0,30 -30,0 z M 240,900 l 30,0 0,30 -30,0 z M 270,900 l 30,0 0,30 -30,0 z M 300,900 l 30,0 0,30 -30,0 z M 390,900 l 30,0 0,30 -30,0 z M 420,900 l 30,0 0,30 -30,0 z M 480,900 l 30,0 0,30 -30,0 z M 510,900 l 30,0 0,30 -30,0 z M 570,900 l 30,0 0,30 -30,0 z M 600,900 l 30,0 0,30 -30,0 z M 630,900 l 30,0 0,30 -30,0 z M 660,900 l 30,0 0,30 -30,0 z M 750,900 l 30,0 0,30 -30,0 z M 780,900 l 30,0 0,30 -30,0 z M 810,900 l 30,0 0,30 -30,0 z M 840,900 l 30,0 0,30 -30,0 z M 900,900 l 30,0 0,30 -30,0 z M 960,900 l 30,0 0,30 -30,0 z M 1020,900 l 30,0 0,30 -30,0 z M 1050,900 l 30,0 0,30 -30,0 z M 120,930 l 30,0 0,30 -30,0 z M 300,930 l 30,0 0,30 -30,0 z M 360,930 l 30,0 0,30 -30,0 z M 390,930 l 30,0 0,30 -30,0 z M 420,930 l 30,0 0,30 -30,0 z M 510,930 l 30,0 0,30 -30,0 z M 540,930 l 30,0 0,30 -30,0 z M 570,930 l 30,0 0,30 -30,0 z M 660,930 l 30,0 0,30 -30,0 z M 690,930 l 30,0 0,30 -30,0 z M 720,930 l 30,0 0,30 -30,0 z M 750,930 l 30,0 0,30 -30,0 z M 810,930 l 30,0 0,30 -30,0 z M 840,930 l 30,0 0,30 -30,0 z M 960,930 l 30,0 0,30 -30,0 z M 990,930 l 30,0 0,30 -30,0 z M 1020,930 l 30,0 0,30 -30,0 z M 1050,930 l 30,0 0,30 -30,0 z M 120,960 l 30,0 0,30 -30,0 z M 180,960 l 30,0 0,30 -30,0 z M 210,960 l 30,0 0,30 -30,0 z M 240,960 l 30,0 0,30 -30,0 z M 300,960 l 30,0 0,30 -30,0 z M 360,960 l 30,0 0,30 -30,0 z M 450,960 l 30,0 0,30 -30,0 z M 480,960 l 30,0 0,30 -30,0 z M 540,960 l 30,0 0,30 -30,0 z M 600,960 l 30,0 0,30 -30,0 z M 660,960 l 30,0 0,30 -30,0 z M 690,960 l 30,0 0,30 -30,0 z M 720,960 l 30,0 0,30 -30,0 z M 750,960 l 30,0 0,30 -30,0 z M 840,960 l 30,0 0,30 -30,0 z M 870,960 l 30,0 0,30 -30,0 z M 900,960 l 30,0 0,30 -30,0 z M 930,960 l 30,0 0,30 -30,0 z M 960,960 l 30,0 0,30 -30,0 z M 990,960 l 30,0 0,30 -30,0 z M 1080,960 l 30,0 0,30 -30,0 z M 120,990 l 30,0 0,30 -30,0 z M 180,990 l 30,0 0,30 -30,0 z M 210,990 l 30,0 0,30 -30,0 z M 240,990 l 30,0 0,30 -30,0 z M 300,990 l 30,0 0,30 -30,0 z M 360,990 l 30,0 0,30 -30,0 z M 420,990 l 30,0 0,30 -30,0 z M 450,990 l 30,0 0,30 -30,0 z M 510,990 l 30,0 0,30 -30,0 z M 540,990 l 30,0 0,30 -30,0 z M 570,990 l 30,0 0,30 -30,0 z M 630,990 l 30,0 0,30 -30,0 z M 720,990 l 30,0 0,30 -30,0 z M 750,990 l 30,0 0,30 -30,0 z M 780,990 l 30,0 0,30 -30,0 z M 810,990 l 30,0 0,30 -30,0 z M 840,990 l 30,0 0,30 -30,0 z M 870,990 l 30,0 0,30 -30,0 z M 960,990 l 30,0 0,30 -30,0 z M 1020,990 l 30,0 0,30 -30,0 z M 1080,990 l 30,0 0,30 -30,0 z M 120,1020 l 30,0 0,30 -30,0 z M 180,1020 l 30,0 0,30 -30,0 z M 210,1020 l 30,0 0,30 -30,0 z M 240,1020 l 30,0 0,30 -30,0 z M 300,1020 l 30,0 0,30 -30,0 z M 360,1020 l 30,0 0,30 -30,0 z M 390,1020 l 30,0 0,30 -30,0 z M 420,1020 l 30,0 0,30 -30,0 z M 480,1020 l 30,0 0,30 -30,0 z M 570,1020 l 30,0 0,30 -30,0 z M 600,1020 l 30,0 0,30 -30,0 z M 630,1020 l 30,0 0,30 -30,0 z M 690,1020 l 30,0 0,30 -30,0 z M 720,1020 l 30,0 0,30 -30,0 z M 810,1020 l 30,0 0,30 -30,0 z M 840,1020 l 30,0 0,30 -30,0 z M 870,1020 l 30,0 0,30 -30,0 z M 900,1020 l 30,0 0,30 -30,0 z M 930,1020 l 30,0 0,30 -30,0 z M 1020,1020 l 30,0 0,30 -30,0 z M 120,1050 l 30,0 0,30 -30,0 z M 300,1050 l 30,0 0,30 -30,0 z M 420,1050 l 30,0 0,30 -30,0 z M 450,1050 l 30,0 0,30 -30,0 z M 510,1050 l 30,0 0,30 -30,0 z M 570,1050 l 30,0 0,30 -30,0 z M 600,1050 l 30,0 0,30 -30,0 z M 660,1050 l 30,0 0,30 -30,0 z M 690,1050 l 30,0 0,30 -30,0 z M 750,1050 l 30,0 0,30 -30,0 z M 780,1050 l 30,0 0,30 -30,0 z M 810,1050 l 30,0 0,30 -30,0 z M 840,1050 l 30,0 0,30 -30,0 z M 900,1050 l 30,0 0,30 -30,0 z M 960,1050 l 30,0 0,30 -30,0 z M 990,1050 l 30,0 0,30 -30,0 z M 1020,1050 l 30,0 0,30 -30,0 z M 120,1080 l 30,0 0,30 -30,0 z M 150,1080 l 30,0 0,30 -30,0 z M 180,1080 l 30,0 0,30 -30,0 z M 210,1080 l 30,0 0,30 -30,0 z M 240,1080 l 30,0 0,30 -30,0 z M 270,1080 l 30,0 0,30 -30,0 z M 300,1080 l 30,0 0,30 -30,0 z M 360,1080 l 30,0 0,30 -30,0 z M 420,1080 l 30,0 0,30 -30,0 z M 480,1080 l 30,0 0,30 -30,0 z M 510,1080 l 30,0 0,30 -30,0 z M 540,1080 l 30,0 0,30 -30,0 z M 630,1080 l 30,0 0,30 -30,0 z M 690,1080 l 30,0 0,30 -30,0 z M 810,1080 l 30,0 0,30 -30,0 z M 870,1080 l 30,0 0,30 -30,0 z M 900,1080 l 30,0 0,30 -30,0 z M 930,1080 l 30,0 0,30 -30,0 z M 1020,1080 l 30,0 0,30 -30,0 z M 1050,1080 l 30,0 0,30 -30,0 z " />
	</g>
</svg>
